                  Hot Rod(2007)720p BDRip[Hindi-Eng]-DGrea8


Summary:-

Rod Kimble is a naïf, a slacker living in a small US town with his mom, his younger brother, and his stepfather whose respect he craves. He also misses his dead dad, whom he thinks was Evel Knievel's back-up. Rod, a man-child, believes that he is a stunt man. When his stepfather needs an operation, with help from his brother and his slacker pals, Rod hatches a plan to set a school-bus-jumping record on his moped. First, his crew and he have to raise money to rent the buses and build the ramp. Trouble is, Rod's inept at his chosen career. Looming failure is complicated by the return of Denise, Rod's next-door neighbor and secret heartthrob, who is home from college. Is public humiliation at hand?



Cast:-


Director: Akiva Schaffer
Writer: Pam Brady
Stars: Andy Samberg, Isla Fisher, Ian McShane
Release Date:3 August 2007 (USA)
Filming Locations: Burnaby North Secondary School, Burnaby, British Columbia, Canada
Genres: Comedy


Video
ID : 1
Format : AVC
Duration : 1h 24mn
Width : 1 280 pixels
Height : 544 pixels
Display aspect ratio : 2.35:1
Frame rate mode : Variable
Frame rate : 25.000 fps
Color space : YUV
Chroma subsampling : 4:2:0
Stream size : 640 MiB (69%)


Audio #1
ID : 2
Format : AC-3
Bit rate : 224 Kbps
Channel(s) : 6 channels
Channel positions : Front: L C R, Side: L R, LFE
Stream size : 135 MiB (15%)
Language : English

Audio #2
ID : 3
Format : AC-3
Bit rate : 224 Kbps
Channel(s) : 2 channels
Channel positions : Front: L R
Sampling rate : 48.0 KHz
Bit depth : 16 bits
Compression mode : Lossy
Stream size : 135 MiB (15%)
Language : Hindi


Subtitle Languages : English,Finnish,Norwegian,Danish,Swedish



Screen Shoots:-
 
http://www.shotpix.com/images/99599885794183896245.jpg
 
http://www.shotpix.com/images/71133874601011754468.jpg
 
http://www.shotpix.com/images/48385764206781424491.jpg
 
http://www.shotpix.com/images/51317600810413673430.jpg
 
http://www.shotpix.com/images/78957437686976506234.jpg



Note:-- Check The Torrent


SAMPLE VIDEO IS AVAILABLE 

              

.............................COMMENT MY WORK...................................
